<svg width="10" height="6" viewBox="0 0 10 6" fill="none" xmlns="http://www.w3.org/2000/svg">
<path d="M9.45346 4.31811L7.31346 2.17811L6.00679 0.86678C5.74046 0.601105 5.37964 0.451904 5.00346 0.451904C4.62727 0.451904 4.26645 0.601105 4.00012 0.86678L0.546789 4.31811C0.446754 4.41866 0.378677 4.54654 0.351115 4.68567C0.323553 4.8248 0.337737 4.96898 0.391884 5.10007C0.446031 5.23116 0.537723 5.34332 0.655435 5.42244C0.773146 5.50157 0.911623 5.54413 1.05346 5.54478H8.94679C9.08891 5.54477 9.22782 5.50258 9.34595 5.42356C9.46407 5.34454 9.55608 5.23224 9.61034 5.10088C9.66459 4.96953 9.67865 4.82503 9.65072 4.68568C9.62279 4.54634 9.55414 4.41841 9.45346 4.31811Z" fill="#2DC656"/>
</svg>
