<svg width="109" height="108" viewBox="0 0 109 108" fill="none" xmlns="http://www.w3.org/2000/svg">
<g filter="url(#filter0_d_849_5234)">
<path d="M45.8363 24H62.1746C69.8167 24 76.0109 30.3373 76.0109 38.1576V53.8511C76.0109 61.6693 69.8167 68.0087 62.1746 68.0087H45.8363C38.1942 68.0087 32 61.6715 32 53.8511V38.1576C32 30.3373 38.1942 24 45.8363 24Z" fill="url(#paint0_linear_849_5234)"/>
</g>
<path d="M65.759 36.5732C65.759 35.2903 64.7182 34.2495 63.4353 34.2495H53.1571C51.619 34.2495 50.2789 34.4145 49.1435 34.7468C47.997 35.0681 47.0465 35.5148 46.2917 36.0847C45.537 36.6546 44.9781 37.3389 44.6172 38.1311C44.2453 38.9122 44.0583 39.7616 44.0583 40.6726C44.0583 41.5836 44.2189 42.3537 44.5424 43.0997C44.9274 43.9908 44.7316 45.0074 44.0561 45.7028C43.6512 46.1187 43.3145 46.5829 43.0483 47.0957C42.5158 48.1189 42.2495 49.2807 42.2495 50.5855C42.2495 51.6792 42.4365 52.6672 42.8084 53.5495C43.1715 54.4319 43.7282 55.1889 44.483 55.8204C45.2267 56.4431 46.1729 56.9228 47.3193 57.2639C48.4569 57.5939 49.7992 57.7612 51.3483 57.7612H63.4353C64.7182 57.7612 65.759 56.7204 65.759 55.4375V36.5732ZM51.3175 43.2757C51.3175 43.2757 51.3087 43.2757 51.3043 43.2757C50.1205 43.2757 49.1171 42.3559 49.0995 41.1721C49.0995 41.1567 49.0995 41.1413 49.0995 41.1237C49.0995 40.2721 49.4361 39.6142 50.1095 39.1521C50.774 38.6812 51.7488 38.4457 53.036 38.4457H58.7814C59.9916 38.4457 60.973 39.4271 60.973 40.6374V41.0819C60.973 42.2921 59.9916 43.2735 58.7814 43.2735H51.3153L51.3175 43.2757ZM51.2273 53.6089C49.94 53.6089 48.963 53.3339 48.3007 52.7816C47.6274 52.2293 47.2907 51.4525 47.2907 50.4491C47.2907 49.4457 47.6274 48.6646 48.3007 48.1035C48.9652 47.5423 49.94 47.2607 51.2273 47.2607H58.6516C59.9344 47.2607 60.9752 48.3015 60.9752 49.5843V51.2853C60.9752 52.5681 59.9344 53.6089 58.6516 53.6089H51.2273Z" fill="#121212"/>
<path d="M62.1724 24.8909C69.315 24.8909 75.1285 30.8475 75.1285 38.1683V53.8398C75.1285 61.1607 69.3172 67.1173 62.1724 67.1173H45.8363C38.6937 67.1173 32.8802 61.1607 32.8802 53.8398V38.1683C32.8802 30.8475 38.6915 24.8909 45.8363 24.8909H62.1746M62.1746 24.0107H45.8363C38.1942 24.0107 32 30.3502 32 38.1683V53.8398C32 61.658 38.1942 67.9974 45.8363 67.9974H62.1746C69.8167 67.9974 76.0109 61.6602 76.0109 53.8398V38.1683C76.0087 30.3502 69.8145 24.0107 62.1724 24.0107H62.1746Z" fill="url(#paint1_linear_849_5234)"/>
<defs>
<filter id="filter0_d_849_5234" x="0" y="0" width="108.011" height="108.009" filterUnits="userSpaceOnUse" color-interpolation-filters="sRGB">
<feFlood flood-opacity="0" result="BackgroundImageFix"/>
<feColorMatrix in="SourceAlpha" type="matrix" values="0 0 0 0 0 0 0 0 0 0 0 0 0 0 0 0 0 0 127 0" result="hardAlpha"/>
<feOffset dy="8"/>
<feGaussianBlur stdDeviation="16"/>
<feComposite in2="hardAlpha" operator="out"/>
<feColorMatrix type="matrix" values="0 0 0 0 1 0 0 0 0 0.996078 0 0 0 0 0 0 0 0 0.16 0"/>
<feBlend mode="normal" in2="BackgroundImageFix" result="effect1_dropShadow_849_5234"/>
<feBlend mode="normal" in="SourceGraphic" in2="effect1_dropShadow_849_5234" result="shape"/>
</filter>
<linearGradient id="paint0_linear_849_5234" x1="39.4441" y1="25.844" x2="68.9453" y2="66.6928" gradientUnits="userSpaceOnUse">
<stop stop-color="#FFFE00"/>
<stop offset="1" stop-color="#E2E100"/>
</linearGradient>
<linearGradient id="paint1_linear_849_5234" x1="36.3107" y1="27.8989" x2="71.698" y2="64.1093" gradientUnits="userSpaceOnUse">
<stop stop-color="white"/>
<stop offset="1" stop-color="white" stop-opacity="0.34"/>
</linearGradient>
</defs>
</svg>
