<svg width="24" height="24" viewBox="0 0 24 24" fill="none" xmlns="http://www.w3.org/2000/svg">
<path d="M11.9998 22.161C11.4442 22.172 10.8925 22.0671 10.3798 21.853L3.13977 18.633C2.66462 18.4028 2.26154 18.0469 1.97421 17.6039C1.68689 17.161 1.52627 16.6478 1.50977 16.12L1.50977 7.89005C1.52681 7.36282 1.68768 6.85029 1.97498 6.40789C2.26227 5.96549 2.66506 5.61006 3.13977 5.38005L10.3798 2.16105C11.4243 1.751 12.5852 1.751 13.6298 2.16105L20.8698 5.38105C21.3445 5.61106 21.7473 5.96649 22.0346 6.40889C22.3219 6.85129 22.4827 7.36382 22.4998 7.89105V16.121C22.4827 16.6483 22.3219 17.1608 22.0346 17.6032C21.7473 18.0456 21.3445 18.401 20.8698 18.631L13.6298 21.853C13.1118 22.0614 12.558 22.1661 11.9998 22.161ZM11.9998 3.34105C11.6512 3.33258 11.3044 3.39377 10.9798 3.52105L3.73977 6.74105C3.53204 6.85539 3.3558 7.01929 3.2267 7.21818C3.0976 7.41707 3.01964 7.64477 2.99977 7.88105V16.111C3.01964 16.3473 3.0976 16.575 3.2267 16.7739C3.3558 16.9728 3.53204 17.1367 3.73977 17.251L10.9798 20.471C11.6352 20.711 12.3544 20.711 13.0098 20.471L20.2498 17.251C20.4575 17.1367 20.6337 16.9728 20.7628 16.7739C20.8919 16.575 20.9699 16.3473 20.9898 16.111V7.88105C20.9699 7.64477 20.8919 7.41707 20.7628 7.21818C20.6337 7.01929 20.4575 6.85539 20.2498 6.74105L13.0098 3.52105C12.689 3.39247 12.3453 3.33087 11.9998 3.34005V3.34105Z" fill="black"/>
<path d="M12 22.1599C11.8015 22.1586 11.6115 22.0792 11.4711 21.9388C11.3307 21.7984 11.2513 21.6084 11.25 21.4099V10.9199C11.2513 10.7214 11.3307 10.5314 11.4711 10.391C11.6115 10.2507 11.8015 10.1712 12 10.1699C12.1985 10.1712 12.3885 10.2507 12.5289 10.391C12.6693 10.5314 12.7487 10.7214 12.75 10.9199V21.4099C12.7487 21.6084 12.6693 21.7984 12.5289 21.9388C12.3885 22.0792 12.1985 22.1586 12 22.1599Z" fill="black"/>
<path d="M12 11.6701C11.897 11.6705 11.7949 11.6501 11.7 11.6101L2.57997 7.56008C2.40248 7.47653 2.26479 7.32676 2.19643 7.14288C2.12806 6.959 2.13447 6.75566 2.21426 6.57645C2.29406 6.39724 2.44089 6.25642 2.62329 6.1842C2.80568 6.11197 3.00912 6.11408 3.18997 6.19008L12.01 10.1101L20.89 6.19008C20.9803 6.14757 21.0782 6.12351 21.1779 6.11931C21.2776 6.11512 21.3772 6.13088 21.4708 6.16567C21.5643 6.20045 21.65 6.25357 21.7228 6.3219C21.7956 6.39023 21.854 6.47239 21.8946 6.56358C21.9352 6.65478 21.9572 6.75315 21.9592 6.85295C21.9613 6.95276 21.9435 7.05197 21.9067 7.14478C21.87 7.23759 21.8151 7.32213 21.7452 7.39344C21.6754 7.46476 21.592 7.52141 21.5 7.56008L12.32 11.6101C12.2176 11.6484 12.1093 11.6687 12 11.6701Z" fill="black"/>
</svg>
