<svg width="24" height="24" viewBox="0 0 24 24" fill="none" xmlns="http://www.w3.org/2000/svg">
<g clip-path="url(#clip0_63_391)">
<path d="M12 15.75C11.2583 15.75 10.5333 15.5301 9.91661 15.118C9.29993 14.706 8.81928 14.1203 8.53545 13.4351C8.25162 12.7498 8.17736 11.9958 8.32206 11.2684C8.46675 10.541 8.8239 9.8728 9.34835 9.34835C9.8728 8.8239 10.541 8.46675 11.2684 8.32206C11.9958 8.17736 12.7498 8.25162 13.4351 8.53545C14.1203 8.81928 14.706 9.29993 15.118 9.91661C15.5301 10.5333 15.75 11.2583 15.75 12C15.7497 12.9945 15.3546 13.9482 14.6514 14.6514C13.9482 15.3546 12.9945 15.7497 12 15.75ZM12 9.75C11.555 9.75 11.12 9.88196 10.75 10.1292C10.38 10.3764 10.0916 10.7278 9.92127 11.139C9.75098 11.5501 9.70642 12.0025 9.79323 12.439C9.88005 12.8754 10.0943 13.2763 10.409 13.591C10.7237 13.9057 11.1246 14.12 11.561 14.2068C11.9975 14.2936 12.4499 14.249 12.861 14.0787C13.2722 13.9084 13.6236 13.62 13.8708 13.25C14.118 12.88 14.25 12.445 14.25 12C14.2492 11.4035 14.0119 10.8317 13.5901 10.4099C13.1683 9.9881 12.5965 9.7508 12 9.75Z" fill="#767A87"/>
<path d="M15.21 22.1899C14.9976 22.1879 14.7862 22.1611 14.58 22.1099C13.9646 21.9446 13.4374 21.5466 13.11 20.9999L12.99 20.7999C12.4 19.7799 11.59 19.7799 11 20.7999L10.89 20.9899C10.7313 21.2649 10.5197 21.5056 10.2674 21.6982C10.0151 21.8908 9.72705 22.0314 9.42 22.1119C9.11396 22.1965 8.7939 22.218 8.4793 22.175C8.1647 22.132 7.86213 22.0255 7.59 21.8619L5.87 20.8719C5.26023 20.5216 4.81449 19.9435 4.63073 19.2648C4.44696 18.586 4.54022 17.862 4.89 17.2519C5.0256 17.0751 5.11492 16.8673 5.14984 16.6473C5.18477 16.4273 5.1642 16.202 5.09 15.9919C4.94592 15.8219 4.7615 15.6907 4.55361 15.6103C4.34572 15.5299 4.121 15.503 3.9 15.5319C3.19724 15.5306 2.52366 15.2507 2.02692 14.7536C1.53018 14.2565 1.25079 13.5827 1.25 12.8799L1.25 11.1199C1.25132 10.4175 1.53094 9.74422 2.02763 9.24754C2.52431 8.75085 3.19758 8.47123 3.9 8.46991C4.12083 8.49907 4.34544 8.47243 4.55331 8.39243C4.76119 8.31242 4.94571 8.1816 5.09 8.01191C5.16671 7.80224 5.18861 7.57645 5.1536 7.35594C5.1186 7.13544 5.02787 6.92752 4.89 6.75191C4.54158 6.14244 4.44813 5.41998 4.63 4.74191C4.71693 4.40358 4.87166 4.08643 5.08481 3.80968C5.29796 3.53293 5.56508 3.30235 5.87 3.13191L7.6 2.13991C8.15353 1.82004 8.81107 1.73199 9.42926 1.89497C10.0474 2.05794 10.5761 2.45872 10.9 3.00991L11.02 3.20991C11.61 4.22991 12.42 4.22991 13.01 3.20991L13.12 3.01991C13.2796 2.74486 13.4921 2.50406 13.745 2.31134C13.998 2.11863 14.2866 1.97781 14.5942 1.89697C14.9018 1.81612 15.2223 1.79685 15.5373 1.84026C15.8524 1.88367 16.1557 1.9889 16.43 2.14991L18.15 3.13991C18.7598 3.49021 19.2055 4.06828 19.3893 4.74707C19.573 5.42586 19.4798 6.14984 19.13 6.75991C18.9944 6.93668 18.9051 7.14451 18.8702 7.36454C18.8352 7.58457 18.8558 7.80984 18.93 8.01991C19.0741 8.18996 19.2585 8.32116 19.4664 8.40152C19.6743 8.48188 19.899 8.50884 20.12 8.47991C20.8224 8.48123 21.4957 8.76085 21.9924 9.25754C22.4891 9.75422 22.7687 10.4275 22.77 11.1299V12.8899C22.7687 13.5923 22.4891 14.2656 21.9924 14.7623C21.4957 15.259 20.8224 15.5386 20.12 15.5399C19.899 15.511 19.6743 15.5379 19.4664 15.6183C19.2585 15.6987 19.0741 15.8299 18.93 15.9999C18.8533 16.2096 18.8314 16.4354 18.8664 16.6559C18.9014 16.8764 18.9921 17.0843 19.13 17.2599C19.3048 17.5608 19.4178 17.8936 19.4625 18.2387C19.5071 18.5839 19.4825 18.9344 19.39 19.2699C19.3031 19.6082 19.1483 19.9254 18.9352 20.2021C18.722 20.4789 18.4549 20.7095 18.15 20.8799L16.42 21.8699C16.0505 22.0779 15.634 22.1881 15.21 22.1899ZM12 18.4899C12.4853 18.5205 12.9535 18.6803 13.3562 18.9529C13.7589 19.2254 14.0813 19.6007 14.29 20.0399L14.4 20.2299C14.5225 20.4362 14.7209 20.5862 14.9527 20.6479C15.1845 20.7096 15.4312 20.678 15.64 20.5599L17.37 19.5599C17.6356 19.4073 17.8298 19.1555 17.91 18.8599C17.9498 18.7148 17.9606 18.5632 17.9418 18.4139C17.9229 18.2646 17.8747 18.1205 17.8 17.9899C17.5253 17.5888 17.3621 17.1219 17.3269 16.6369C17.2918 16.152 17.386 15.6665 17.6 15.2299C17.8696 14.8247 18.2426 14.4989 18.6804 14.2862C19.1182 14.0734 19.6048 13.9815 20.09 14.0199C20.2412 14.0207 20.3911 13.9915 20.531 13.934C20.6709 13.8765 20.798 13.7918 20.9049 13.6849C21.0119 13.5779 21.0966 13.4508 21.1541 13.3109C21.2116 13.1711 21.2408 13.0212 21.24 12.8699V11.1119C21.24 10.8069 21.1188 10.5144 20.9032 10.2987C20.6875 10.0831 20.395 9.96191 20.09 9.96191C19.6048 10.0003 19.1182 9.90839 18.6804 9.69566C18.2426 9.48293 17.8696 9.15712 17.6 8.75191C17.386 8.31534 17.2918 7.82979 17.3269 7.34488C17.3621 6.85996 17.5253 6.39307 17.8 5.99191C17.8747 5.86128 17.9229 5.71718 17.9418 5.56788C17.9606 5.41858 17.9498 5.26703 17.91 5.12191C17.8309 4.82862 17.6408 4.5776 17.38 4.42191L15.65 3.43191C15.5456 3.37071 15.4302 3.3307 15.3104 3.31417C15.1905 3.29763 15.0686 3.3049 14.9515 3.33555C14.8345 3.36621 14.7247 3.41964 14.6283 3.4928C14.532 3.56596 14.451 3.65741 14.39 3.76191L14.28 3.95191C14.0713 4.39108 13.7489 4.76641 13.3462 5.03896C12.9435 5.31152 12.4753 5.47136 11.99 5.50191C11.5047 5.47136 11.0365 5.31152 10.6338 5.03896C10.2311 4.76641 9.9087 4.39108 9.7 3.95191L9.59 3.75191C9.46573 3.54755 9.26661 3.39975 9.03501 3.33998C8.80342 3.28022 8.55764 3.3132 8.35 3.43191L6.62 4.43191C6.35443 4.58456 6.16024 4.8363 6.08 5.13191C6.04016 5.27703 6.02937 5.42858 6.04825 5.57788C6.06712 5.72718 6.1153 5.87128 6.19 6.00191C6.46469 6.40307 6.62794 6.86996 6.66308 7.35488C6.69822 7.83979 6.60398 8.32534 6.39 8.76191C6.12037 9.16712 5.74738 9.49293 5.30961 9.70566C4.87185 9.91839 4.3852 10.0103 3.9 9.97191C3.74893 9.97112 3.59919 10.0003 3.45944 10.0576C3.31969 10.115 3.19269 10.1995 3.08577 10.3063C2.97885 10.413 2.89413 10.5398 2.8365 10.6795C2.77887 10.8192 2.74947 10.9688 2.75 11.1199V12.8799C2.75 13.1849 2.87116 13.4774 3.08683 13.6931C3.30249 13.9088 3.595 14.0299 3.9 14.0299C4.3852 13.9915 4.87185 14.0834 5.30961 14.2962C5.74738 14.5089 6.12037 14.8347 6.39 15.2399C6.60398 15.6765 6.69822 16.162 6.66308 16.6469C6.62794 17.1319 6.46469 17.5988 6.19 17.9999C6.1153 18.1305 6.06712 18.2746 6.04825 18.4239C6.02937 18.5732 6.04016 18.7248 6.08 18.8699C6.1591 19.1632 6.34916 19.4142 6.61 19.5699L8.34 20.5599C8.44225 20.6224 8.55613 20.6635 8.67474 20.6807C8.79335 20.6979 8.91421 20.6908 9.03 20.6599C9.26873 20.5962 9.47322 20.442 9.6 20.2299L9.71 20.0399C9.9204 19.602 10.2432 19.2278 10.6456 18.9555C11.0479 18.6832 11.5153 18.5225 12 18.4899Z" fill="#767A87"/>
</g>
<defs>
<clipPath id="clip0_63_391">
<rect width="24" height="24" fill="white"/>
</clipPath>
</defs>
</svg>
