<svg width="20" height="6" viewBox="0 0 20 6" fill="none" xmlns="http://www.w3.org/2000/svg">
<path d="M3 1C2.60444 1 2.21776 1.1173 1.88886 1.33706C1.55996 1.55682 1.30362 1.86918 1.15224 2.23463C1.00087 2.60009 0.96126 3.00222 1.03843 3.39018C1.1156 3.77814 1.30608 4.13451 1.58579 4.41421C1.86549 4.69392 2.22186 4.8844 2.60982 4.96157C2.99778 5.03874 3.39992 4.99913 3.76537 4.84776C4.13082 4.69638 4.44318 4.44004 4.66294 4.11114C4.8827 3.78224 5 3.39556 5 3C4.99842 2.47005 4.7872 1.96227 4.41247 1.58753C4.03774 1.2128 3.52995 1.00158 3 1Z" fill="#292D32" stroke="#292D32"/>
<path d="M17 1C16.6044 1 16.2178 1.1173 15.8889 1.33706C15.56 1.55682 15.3036 1.86918 15.1522 2.23463C15.0009 2.60009 14.9613 3.00222 15.0384 3.39018C15.1156 3.77814 15.3061 4.13451 15.5858 4.41421C15.8655 4.69392 16.2219 4.8844 16.6098 4.96157C16.9978 5.03874 17.3999 4.99913 17.7654 4.84776C18.1308 4.69638 18.4432 4.44004 18.6629 4.11114C18.8827 3.78224 19 3.39556 19 3C18.9984 2.47005 18.7872 1.96227 18.4125 1.58753C18.0377 1.2128 17.5299 1.00158 17 1Z" fill="#292D32" stroke="#292D32"/>
<path d="M10 1C9.60444 1 9.21776 1.1173 8.88886 1.33706C8.55996 1.55682 8.30362 1.86918 8.15224 2.23463C8.00087 2.60009 7.96126 3.00222 8.03843 3.39018C8.1156 3.77814 8.30608 4.13451 8.58579 4.41421C8.86549 4.69392 9.22186 4.8844 9.60982 4.96157C9.99778 5.03874 10.3999 4.99913 10.7654 4.84776C11.1308 4.69638 11.4432 4.44004 11.6629 4.11114C11.8827 3.78224 12 3.39556 12 3C11.9984 2.47005 11.7872 1.96227 11.4125 1.58753C11.0377 1.2128 10.5299 1.00158 10 1Z" fill="#292D32" stroke="#292D32"/>
</svg>
