<svg width="26" height="26" viewBox="0 0 26 26" fill="none" xmlns="http://www.w3.org/2000/svg">
<path d="M25.5302 13.296C25.513 12.4063 25.4473 11.5183 25.3334 10.6357H13.0264V15.6576H20.0156C19.8777 16.4532 19.5797 17.2124 19.1396 17.8894C18.6995 18.5663 18.1266 19.1468 17.4555 19.5957V22.8444H21.6896C22.9625 21.6104 23.9622 20.1229 24.6238 18.478C25.2854 16.8332 25.5942 15.0677 25.5302 13.296Z" fill="#4285F4"/>
<path d="M13.0237 25.9959C16.2066 26.0772 19.3025 24.9512 21.6894 22.8439L17.4562 19.5952C16.141 20.4558 14.5978 20.9018 13.0263 20.8757C11.3951 20.8595 9.81101 20.3265 8.50183 19.3533C7.19266 18.3801 6.22578 17.0168 5.7402 15.4595H1.4043V18.8083C2.48394 20.9662 4.14239 22.7813 6.19429 24.051C8.2462 25.3206 10.6107 25.9946 13.0237 25.9977" fill="#34A853"/>
<path d="M5.73721 15.4611C5.14552 13.8394 5.14552 12.0609 5.73721 10.4392V7.09131H1.40389C0.481023 8.90659 0 10.9142 0 12.9506C0 14.987 0.481023 16.9946 1.40389 18.8099L5.73721 15.4611Z" fill="#FBBC04"/>
<path d="M13.024 5.1222C14.8875 5.11577 16.6834 5.81992 18.0459 7.09126L21.789 3.34987C19.44 1.15849 16.3355 -0.0412106 13.1233 0.00108133C10.7077 -0.00860089 8.33784 0.66014 6.28362 1.93117C4.22941 3.2022 2.57332 5.02446 1.50391 7.19049L5.83722 10.5367C6.28836 8.97829 7.23266 7.60819 8.52845 6.63195C9.82425 5.65571 11.4017 5.12597 13.024 5.1222Z" fill="#EA4335"/>
</svg>
