<svg width="24" height="24" viewBox="0 0 24 24" fill="none" xmlns="http://www.w3.org/2000/svg">
<path d="M20.46 7.69005L14.46 3.02005C13.7574 2.47562 12.8938 2.18018 12.005 2.18018C11.1162 2.18018 10.2526 2.47562 9.55 3.02005L3.55 7.69005C3.06716 8.06313 2.67635 8.54202 2.40763 9.08985C2.13892 9.63768 1.99946 10.2399 2 10.85V18C2 19.0609 2.42143 20.0783 3.17157 20.8285C3.92172 21.5786 4.93914 22 6 22H18C19.0609 22 20.0783 21.5786 20.8284 20.8285C21.5786 20.0783 22 19.0609 22 18V10.85C22.0002 10.2409 21.8617 9.6398 21.5948 9.09225C21.328 8.54471 20.9399 8.06517 20.46 7.69005ZM12.75 18C12.75 18.199 12.671 18.3897 12.5303 18.5304C12.3897 18.671 12.1989 18.75 12 18.75C11.8011 18.75 11.6103 18.671 11.4697 18.5304C11.329 18.3897 11.25 18.199 11.25 18V15C11.25 14.8011 11.329 14.6104 11.4697 14.4697C11.6103 14.3291 11.8011 14.25 12 14.25C12.1989 14.25 12.3897 14.3291 12.5303 14.4697C12.671 14.6104 12.75 14.8011 12.75 15V18Z" fill="#111225"/>
</svg>
