<svg width="24" height="24" viewBox="0 0 24 24" fill="none" xmlns="http://www.w3.org/2000/svg">
<path d="M4.58 18.1699H4.25C3.88879 18.1702 3.53107 18.0992 3.19731 17.9611C2.86355 17.823 2.56028 17.6205 2.30487 17.3651C2.04946 17.1096 1.8469 16.8064 1.7088 16.4726C1.57069 16.1388 1.49974 15.7811 1.5 15.4199V12.9199C1.49974 12.5587 1.57069 12.201 1.7088 11.8672C1.8469 11.5335 2.04946 11.2302 2.30487 10.9748C2.56028 10.7194 2.86355 10.5168 3.19731 10.3787C3.53107 10.2406 3.88879 10.1697 4.25 10.1699H4.58C4.94121 10.1697 5.29893 10.2406 5.63269 10.3787C5.96646 10.5168 6.26972 10.7194 6.52513 10.9748C6.78054 11.2302 6.9831 11.5335 7.12121 11.8672C7.25931 12.201 7.33026 12.5587 7.33 12.9199V15.4199C7.32868 16.1489 7.03852 16.8476 6.52308 17.363C6.00765 17.8784 5.30894 18.1686 4.58 18.1699ZM4.25 11.6699C3.91848 11.6699 3.60054 11.8016 3.36612 12.036C3.1317 12.2705 3 12.5884 3 12.9199V15.4199C3 15.7514 3.1317 16.0694 3.36612 16.3038C3.60054 16.5382 3.91848 16.6699 4.25 16.6699H4.58C4.91152 16.6699 5.22946 16.5382 5.46388 16.3038C5.6983 16.0694 5.83 15.7514 5.83 15.4199V12.9199C5.83 12.5884 5.6983 12.2705 5.46388 12.036C5.22946 11.8016 4.91152 11.6699 4.58 11.6699H4.25Z" fill="#767A87"/>
<path d="M19.5799 11.67C19.3814 11.6687 19.1914 11.5893 19.051 11.4489C18.9107 11.3085 18.8312 11.1185 18.8299 10.92V9.84001C18.8299 8.02858 18.1103 6.29134 16.8295 5.01047C15.5486 3.7296 13.8114 3.01001 11.9999 3.01001C10.1885 3.01001 8.45126 3.7296 7.17038 5.01047C5.88951 6.29134 5.16992 8.02858 5.16992 9.84001V10.92C5.16861 11.1185 5.08917 11.3085 4.9488 11.4489C4.80843 11.5893 4.61843 11.6687 4.41992 11.67C4.22141 11.6687 4.03141 11.5893 3.89104 11.4489C3.75067 11.3085 3.67123 11.1185 3.66992 10.92V9.84001C3.66992 7.63076 4.54754 5.51199 6.10972 3.94981C7.6719 2.38763 9.79067 1.51001 11.9999 1.51001C14.2092 1.51001 16.3279 2.38763 17.8901 3.94981C19.4523 5.51199 20.3299 7.63076 20.3299 9.84001V10.92C20.3301 11.0185 20.3107 11.1161 20.2731 11.2072C20.2355 11.2982 20.1802 11.381 20.1105 11.4506C20.0409 11.5203 19.9581 11.5755 19.8671 11.6132C19.776 11.6508 19.6784 11.6701 19.5799 11.67Z" fill="#767A87"/>
<path d="M14.1601 22.5001H13.0801C12.8812 22.5001 12.6904 22.421 12.5497 22.2804C12.4091 22.1397 12.3301 21.949 12.3301 21.7501C12.3301 21.5511 12.4091 21.3604 12.5497 21.2197C12.6904 21.0791 12.8812 21.0001 13.0801 21.0001H14.1601C15.2367 20.9988 16.2799 20.6253 17.1127 19.943C17.9456 19.2607 18.517 18.3114 18.7301 17.2561C18.7491 17.1595 18.787 17.0677 18.8415 16.9858C18.896 16.9039 18.9661 16.8335 19.0478 16.7787C19.1296 16.7239 19.2213 16.6858 19.3178 16.6665C19.4142 16.6471 19.5136 16.647 19.6101 16.6661C19.804 16.7064 19.9744 16.8211 20.0847 16.9856C20.195 17.1501 20.2364 17.3513 20.2001 17.5461C19.92 18.9422 19.1654 20.1983 18.0645 21.1013C16.9635 22.0043 15.584 22.4985 14.1601 22.5001Z" fill="#767A87"/>
<path d="M19.7499 18.1699H19.4199C19.0587 18.1702 18.701 18.0992 18.3672 17.9611C18.0335 17.823 17.7302 17.6205 17.4748 17.3651C17.2194 17.1096 17.0168 16.8064 16.8787 16.4726C16.7406 16.1388 16.6697 15.7811 16.6699 15.4199V12.9199C16.6697 12.5587 16.7406 12.201 16.8787 11.8672C17.0168 11.5335 17.2194 11.2302 17.4748 10.9748C17.7302 10.7194 18.0335 10.5168 18.3672 10.3787C18.701 10.2406 19.0587 10.1697 19.4199 10.1699H19.7499C20.1111 10.1697 20.4688 10.2406 20.8026 10.3787C21.1364 10.5168 21.4396 10.7194 21.6951 10.9748C21.9505 11.2302 22.153 11.5335 22.2911 11.8672C22.4292 12.201 22.5002 12.5587 22.4999 12.9199V15.4199C22.4986 16.1489 22.2084 16.8476 21.693 17.363C21.1776 17.8784 20.4789 18.1686 19.7499 18.1699ZM19.4199 11.6699C19.0884 11.6699 18.7705 11.8016 18.536 12.036C18.3016 12.2705 18.1699 12.5884 18.1699 12.9199V15.4199C18.1699 15.7514 18.3016 16.0694 18.536 16.3038C18.7705 16.5382 19.0884 16.6699 19.4199 16.6699H19.7499C20.0814 16.6699 20.3994 16.5382 20.6338 16.3038C20.8682 16.0694 20.9999 15.7514 20.9999 15.4199V12.9199C20.9999 12.5884 20.8682 12.2705 20.6338 12.036C20.3994 11.8016 20.0814 11.6699 19.7499 11.6699H19.4199Z" fill="#767A87"/>
</svg>
